# xmcd
#
# Track frame offsets: 
#        150
#        18234
#        32383
#        49484
#        61822
#        74187
#        90482
#        103435
#        118675
#        133166
#        143035
#
# Disc length: 2172 seconds
#
# Revision: 0
# Processed by: cddbd v1.5.2PL0 Copyright (c) Steve Scherf et al.
# Submitted via: ExactAudioCopyFreeDBPlugin 1.0
#
DISCID=a1087a0b
DTITLE=Zebra - Mambopunk
DYEAR=2015
DGENRE=Pop
TTITLE0=Choisis ton camp camarade
TTITLE1=Peau de zèbre
TTITLE2=J'étais un voleur
TTITLE3=Tu chantes comme
TTITLE4=Du sang sur les murs
TTITLE5=Alleluia everybody
TTITLE6=Chanson sympathique
TTITLE7=Naked in Paris
TTITLE8=Someone to love
TTITLE9=Mambopunk
TTITLE10=Fête à la maison
EXTD=
EXTT0=
EXTT1=
EXTT2=
EXTT3=
EXTT4=
EXTT5=
EXTT6=
EXTT7=
EXTT8=
EXTT9=
EXTT10=
PLAYORDER=
